<svg width="48" height="48" viewBox="0 0 48 48" fill="none" xmlns="http://www.w3.org/2000/svg">
<g clip-path="url(#clip0_105_1516)">
<path d="M24 27.1251C25.7259 27.1251 27.125 25.726 27.125 24.0001C27.125 22.2742 25.7259 20.8751 24 20.8751C22.2741 20.8751 20.875 22.2742 20.875 24.0001C20.875 25.726 22.2741 27.1251 24 27.1251Z" stroke="#65558F" stroke-width="2" stroke-linecap="round" stroke-linejoin="round"/>
<path d="M31.7083 27.1251C31.5696 27.4393 31.5283 27.7878 31.5895 28.1257C31.6508 28.4636 31.8119 28.7754 32.052 29.0209L32.1145 29.0834C32.3082 29.2769 32.4619 29.5067 32.5668 29.7596C32.6716 30.0125 32.7256 30.2836 32.7256 30.5574C32.7256 30.8312 32.6716 31.1023 32.5668 31.3552C32.4619 31.6081 32.3082 31.8378 32.1145 32.0313C31.9211 32.225 31.6913 32.3787 31.4384 32.4835C31.1855 32.5884 30.9144 32.6423 30.6406 32.6423C30.3668 32.6423 30.0957 32.5884 29.8428 32.4835C29.5899 32.3787 29.3601 32.225 29.1666 32.0313L29.1041 31.9688C28.8586 31.7287 28.5468 31.5676 28.2089 31.5063C27.871 31.4451 27.5225 31.4864 27.2083 31.6251C26.9002 31.7571 26.6374 31.9764 26.4524 32.2558C26.2673 32.5353 26.168 32.8628 26.1666 33.198V33.3751C26.1666 33.9276 25.9471 34.4575 25.5564 34.8482C25.1657 35.2389 24.6358 35.4584 24.0833 35.4584C23.5308 35.4584 23.0009 35.2389 22.6102 34.8482C22.2195 34.4575 22 33.9276 22 33.3751V33.2813C21.9919 32.9365 21.8803 32.6022 21.6797 32.3216C21.479 32.0411 21.1986 31.8275 20.875 31.7084C20.5608 31.5698 20.2123 31.5284 19.8743 31.5897C19.5364 31.6509 19.2246 31.812 18.9791 32.0522L18.9166 32.1147C18.7231 32.3084 18.4934 32.462 18.2405 32.5669C17.9875 32.6717 17.7165 32.7257 17.4427 32.7257C17.1689 32.7257 16.8978 32.6717 16.6449 32.5669C16.392 32.462 16.1622 32.3084 15.9687 32.1147C15.775 31.9212 15.6213 31.6914 15.5165 31.4385C15.4117 31.1856 15.3577 30.9145 15.3577 30.6407C15.3577 30.3669 15.4117 30.0958 15.5165 29.8429C15.6213 29.59 15.775 29.3602 15.9687 29.1667L16.0312 29.1042C16.2714 28.8587 16.4324 28.5469 16.4937 28.209C16.555 27.8711 16.5136 27.5226 16.375 27.2084C16.2429 26.9003 16.0237 26.6376 15.7442 26.4525C15.4647 26.2674 15.1372 26.1681 14.802 26.1667H14.625C14.0724 26.1667 13.5425 25.9473 13.1518 25.5566C12.7611 25.1659 12.5416 24.6359 12.5416 24.0834C12.5416 23.5309 12.7611 23.001 13.1518 22.6103C13.5425 22.2196 14.0724 22.0001 14.625 22.0001H14.7187C15.0635 21.992 15.3979 21.8804 15.6784 21.6798C15.9589 21.4791 16.1726 21.1988 16.2916 20.8751C16.4303 20.5609 16.4717 20.2124 16.4104 19.8745C16.3491 19.5366 16.188 19.2247 15.9479 18.9792L15.8854 18.9167C15.6917 18.7233 15.538 18.4935 15.4332 18.2406C15.3283 17.9877 15.2744 17.7166 15.2744 17.4428C15.2744 17.169 15.3283 16.8979 15.4332 16.645C15.538 16.3921 15.6917 16.1623 15.8854 15.9688C16.0789 15.7751 16.3086 15.6215 16.5615 15.5166C16.8145 15.4118 17.0856 15.3578 17.3593 15.3578C17.6331 15.3578 17.9042 15.4118 18.1571 15.5166C18.41 15.6215 18.6398 15.7751 18.8333 15.9688L18.8958 16.0313C19.1413 16.2715 19.4531 16.4326 19.791 16.4938C20.1289 16.5551 20.4774 16.5137 20.7916 16.3751H20.875C21.1831 16.243 21.4458 16.0238 21.6309 15.7443C21.816 15.4648 21.9153 15.1374 21.9166 14.8022V14.6251C21.9166 14.0725 22.1361 13.5426 22.5268 13.1519C22.9175 12.7612 23.4474 12.5417 24 12.5417C24.5525 12.5417 25.0824 12.7612 25.4731 13.1519C25.8638 13.5426 26.0833 14.0725 26.0833 14.6251V14.7188C26.0846 15.054 26.184 15.3815 26.369 15.661C26.5541 15.9405 26.8169 16.1597 27.125 16.2917C27.4391 16.4304 27.7877 16.4718 28.1256 16.4105C28.4635 16.3492 28.7753 16.1881 29.0208 15.948L29.0833 15.8855C29.2768 15.6918 29.5065 15.5381 29.7595 15.4333C30.0124 15.3284 30.2835 15.2745 30.5573 15.2745C30.831 15.2745 31.1021 15.3284 31.355 15.4333C31.608 15.5381 31.8377 15.6918 32.0312 15.8855C32.2249 16.079 32.3786 16.3088 32.4834 16.5617C32.5883 16.8146 32.6422 17.0857 32.6422 17.3595C32.6422 17.6332 32.5883 17.9043 32.4834 18.1572C32.3786 18.4102 32.2249 18.6399 32.0312 18.8334L31.9687 18.8959C31.7286 19.1414 31.5675 19.4532 31.5062 19.7911C31.4449 20.129 31.4863 20.4776 31.625 20.7917V20.8751C31.757 21.1832 31.9763 21.4459 32.2557 21.631C32.5352 21.8161 32.8627 21.9154 33.1979 21.9167H33.375C33.9275 21.9167 34.4574 22.1362 34.8481 22.5269C35.2388 22.9176 35.4583 23.4475 35.4583 24.0001C35.4583 24.5526 35.2388 25.0825 34.8481 25.4732C34.4574 25.8639 33.9275 26.0834 33.375 26.0834H33.2812C32.946 26.0848 32.6185 26.1841 32.3391 26.3692C32.0596 26.5542 31.8403 26.817 31.7083 27.1251Z" stroke="#65558F" stroke-width="2" stroke-linecap="round" stroke-linejoin="round"/>
</g>
<defs>
<clipPath id="clip0_105_1516">
<rect width="25" height="25" fill="white" transform="translate(11.5 11.5)"/>
</clipPath>
</defs>
</svg>
